<mxfile host="65bd71144e" modified="2020-11-19T13:29:30.752Z" agent="5.0 (Macintosh; Intel Mac OS X 10_15_7) AppleWebKit/537.36 (KHTML, like Gecko) Code-Insiders/1.52.0-insider Chrome/83.0.4103.122 Electron/9.3.3 Safari/537.36" etag="Wqt2PlsJLg5R0sZdi3wT" version="13.6.5">
    <diagram id="aRFtggJ2TRr15QVSVLIx" name="WORKFLOW">
        <mxGraphModel dx="912" dy="907" grid="1" gridSize="10" guides="1" tooltips="1" connect="1" arrows="1" fold="1" page="1" pageScale="1" pageWidth="1100" pageHeight="850" math="0" shadow="0">
            <root>
                <mxCell id="0"/>
                <mxCell id="1" parent="0"/>
                <mxCell id="2" value="" style="rounded=0;whiteSpace=wrap;html=1;" vertex="1" parent="1">
                    <mxGeometry x="300" y="285" width="500" height="280" as="geometry"/>
                </mxCell>
                <mxCell id="4" value="TBD" style="text;html=1;strokeColor=none;fillColor=none;align=center;verticalAlign=middle;whiteSpace=wrap;rounded=0;" vertex="1" parent="1">
                    <mxGeometry x="530" y="415" width="40" height="20" as="geometry"/>
                </mxCell>
            </root>
        </mxGraphModel>
    </diagram>
</mxfile>
